  0
SECTION
  2
HEADER
  9
$ACADVER
  1
AC1014
  9
$HANDSEED
  5
FFFF
  9
$MEASUREMENT
 70
     1
  0
ENDSEC
  0
SECTION
  2
TABLES
  0
TABLE
  2
VPORT
  5
8
330
0
100
AcDbSymbolTable
 70
     4
  0
VPORT
  5
2E
330
8
100
AcDbSymbolTableRecord
100
AcDbViewportTableRecord
  2
*ACTIVE
 70
     0
 10
0.0
 20
0.0
 11
1.0
 21
1.0
 12
210.0
 22
148.5
 13
0.0
 23
0.0
 14
10.0
 24
10.0
 15
10.0
 25
10.0
 16
0.0
 26
0.0
 36
1.0
 17
0.0
 27
0.0
 37
0.0
 40
341.0
 41
1.24
 42
50.0
 43
0.0
 44
0.0
 50
0.0
 51
0.0
 71
     0
 72
   100
 73
     1
 74
     3
 75
     0
 76
     0
 77
     0
 78
     0
  0
ENDTAB
  0
TABLE
  2
LTYPE
  5
5
330
0
100
AcDbSymbolTable
 70
     1
  0
LTYPE
  5
14
330
5
100
AcDbSymbolTableRecord
100
AcDbLinetypeTableRecord
  2
BYBLOCK
 70
     0
  3

 72
    65
 73
     0
 40
0.0
  0
LTYPE
  5
15
330
5
100
AcDbSymbolTableRecord
100
AcDbLinetypeTableRecord
  2
BYLAYER
 70
     0
  3

 72
    65
 73
     0
 40
0.0
  0
LTYPE
  5
16
330
5
100
AcDbSymbolTableRecord
100
AcDbLinetypeTableRecord
  2
CONTINUOUS
 70
     0
  3
Solid line
 72
    65
 73
     0
 40
0.0
  0
ENDTAB
  0
TABLE
  2
LAYER
  5
2
100
AcDbSymbolTable
 70
6
  0
LAYER
  5
50
100
AcDbSymbolTableRecord
100
AcDbLayerTableRecord
  2
0
 70
0
  6
CONTINUOUS
  0
LAYER
  5
51
100
AcDbSymbolTableRecord
100
AcDbLayerTableRecord
  2
BORDER_FRAME
 70
0
  6
CONTINUOUS
  0
LAYER
  5
52
100
AcDbSymbolTableRecord
100
AcDbLayerTableRecord
  2
BORDER_ZONES
 70
0
  6
CONTINUOUS
  0
LAYER
  5
53
100
AcDbSymbolTableRecord
100
AcDbLayerTableRecord
  2
TITLE_BLOCK
 70
0
  6
CONTINUOUS
  0
LAYER
  5
54
100
AcDbSymbolTableRecord
100
AcDbLayerTableRecord
  2
ANNOTATION_TEXT
 70
0
  6
CONTINUOUS
  0
LAYER
  5
55
100
AcDbSymbolTableRecord
100
AcDbLayerTableRecord
  2
VISIBLE
 70
0
  6
CONTINUOUS
  0
ENDTAB
  0
TABLE
  2
STYLE
  5
3
330
0
100
AcDbSymbolTable
 70
     1
  0
STYLE
  5
11
330
3
100
AcDbSymbolTableRecord
100
AcDbTextStyleTableRecord
  2
STANDARD
 70
     0
 40
0.0
 41
1.0
 50
0.0
 71
     0
 42
2.5
  3
txt
  4

  0
ENDTAB
  0
TABLE
  2
VIEW
  5
6
330
0
100
AcDbSymbolTable
 70
     0
  0
ENDTAB
  0
TABLE
  2
UCS
  5
7
330
0
100
AcDbSymbolTable
 70
     0
  0
ENDTAB
  0
TABLE
  2
APPID
  5
9
330
0
100
AcDbSymbolTable
 70
     2
  0
APPID
  5
12
330
9
100
AcDbSymbolTableRecord
100
AcDbRegAppTableRecord
  2
ACAD
 70
     0
  0
ENDTAB
  0
TABLE
  2
DIMSTYLE
  5
A
330
0
100
AcDbSymbolTable
 70
     1
  0
DIMSTYLE
105
27
330
A
100
AcDbSymbolTableRecord
100
AcDbDimStyleTableRecord
  2
ISO-25
 70
     0
  3

  4

  5

  6

  7

 40
1.0
 41
2.5
 42
0.625
 43
3.75
 44
1.25
 45
0.0
 46
0.0
 47
0.0
 48
0.0
140
2.5
141
2.5
142
0.0
143
0.03937007874016
144
1.0
145
0.0
146
1.0
147
0.625
 71
     0
 72
     0
 73
     0
 74
     0
 75
     0
 76
     0
 77
     1
 78
     8
170
     0
171
     3
172
     1
173
     0
174
     0
175
     0
176
     0
177
     0
178
     0
270
     2
271
     2
272
     2
273
     2
274
     3
340
11
275
     0
280
     0
281
     0
282
     0
283
     0
284
     8
285
     0
286
     0
287
     3
288
     0
  0
ENDTAB
  0
TABLE
  2
BLOCK_RECORD
  5
1
330
0
100
AcDbSymbolTable
 70
     1
  0
BLOCK_RECORD
  5
1F
330
1
100
AcDbSymbolTableRecord
100
AcDbBlockTableRecord
  2
*MODEL_SPACE
  0
BLOCK_RECORD
  5
1B
330
1
100
AcDbSymbolTableRecord
100
AcDbBlockTableRecord
  2
*PAPER_SPACE
  0
ENDTAB
  0
ENDSEC
  0
SECTION
  2
BLOCKS
  0
BLOCK
  5
20
330
1F
100
AcDbEntity
  8
0
100
AcDbBlockBegin
  2
*MODEL_SPACE
 70
     0
 10
0.0
 20
0.0
 30
0.0
  3
*MODEL_SPACE
  1

  0
ENDBLK
  5
21
330
1F
100
AcDbEntity
  8
0
100
AcDbBlockEnd
  0
BLOCK
  5
1C
330
1B
100
AcDbEntity
 67
     1
  8
0
100
AcDbBlockBegin
  2
*PAPER_SPACE
  1

  0
ENDBLK
  5
1D
330
1B
100
AcDbEntity
 67
     1
  8
0
100
AcDbBlockEnd
  0
ENDSEC
  0
SECTION
  2
ENTITIES
  0
SPLINE
  5
100
100
AcDbEntity
  8
VISIBLE
 62
7
100
AcDbSpline
 70
8
 71
3
 72
8
 73
4
 74
0
 40
0
 40
0
 40
0
 40
0
 40
1
 40
1
 40
1
 40
1
 10
84.134751
 20
204.710216
 30
0.0
 10
83.581621
 20
204.710216
 30
0.0
 10
83.073378
 20
204.405808
 30
0.0
 10
82.812322
 20
203.918158
 30
0.0
  0
SPLINE
  5
101
100
AcDbEntity
  8
VISIBLE
 62
7
100
AcDbSpline
 70
8
 71
3
 72
8
 73
4
 74
0
 40
0
 40
0
 40
0
 40
0
 40
1
 40
1
 40
1
 40
1
 10
173.259126
 20
203.918158
 30
0.0
 10
172.998070
 20
204.405808
 30
0.0
 10
172.489827
 20
204.710216
 30
0.0
 10
171.936697
 20
204.710216
 30
0.0
  0
SPLINE
  5
102
100
AcDbEntity
  8
VISIBLE
 62
7
100
AcDbSpline
 70
8
 71
3
 72
8
 73
4
 74
0
 40
0
 40
0
 40
0
 40
0
 40
1
 40
1
 40
1
 40
1
 10
180.284751
 20
204.710216
 30
0.0
 10
179.731620
 20
204.710216
 30
0.0
 10
179.223377
 20
204.405808
 30
0.0
 10
178.962321
 20
203.918158
 30
0.0
  0
SPLINE
  5
103
100
AcDbEntity
  8
VISIBLE
 62
7
100
AcDbSpline
 70
8
 71
3
 72
8
 73
4
 74
0
 40
0
 40
0
 40
0
 40
0
 40
1
 40
1
 40
1
 40
1
 10
267.609126
 20
203.918158
 30
0.0
 10
267.348070
 20
204.405808
 30
0.0
 10
266.839827
 20
204.710216
 30
0.0
 10
266.286697
 20
204.710216
 30
0.0
  0
SPLINE
  5
104
100
AcDbEntity
  8
VISIBLE
 62
7
100
AcDbSpline
 70
8
 71
3
 72
8
 73
4
 74
0
 40
0
 40
0
 40
0
 40
0
 40
1
 40
1
 40
1
 40
1
 10
274.634750
 20
204.710216
 30
0.0
 10
274.081621
 20
204.710216
 30
0.0
 10
273.573377
 20
204.405808
 30
0.0
 10
273.312322
 20
203.918158
 30
0.0
  0
SPLINE
  5
105
100
AcDbEntity
  8
VISIBLE
 62
7
100
AcDbSpline
 70
8
 71
3
 72
8
 73
4
 74
0
 40
0
 40
0
 40
0
 40
0
 40
1
 40
1
 40
1
 40
1
 10
343.799126
 20
203.918158
 30
0.0
 10
343.538070
 20
204.405808
 30
0.0
 10
343.029827
 20
204.710216
 30
0.0
 10
342.476697
 20
204.710216
 30
0.0
  0
SPLINE
  5
106
100
AcDbEntity
  8
VISIBLE
 62
7
100
AcDbSpline
 70
8
 71
3
 72
8
 73
4
 74
0
 40
0
 40
0
 40
0
 40
0
 40
1
 40
1
 40
1
 40
1
 10
350.824751
 20
204.710216
 30
0.0
 10
350.271621
 20
204.710216
 30
0.0
 10
349.763377
 20
204.405808
 30
0.0
 10
349.502321
 20
203.918158
 30
0.0
  0
SPLINE
  5
107
100
AcDbEntity
  8
VISIBLE
 62
7
100
AcDbSpline
 70
8
 71
3
 72
8
 73
4
 74
0
 40
0
 40
0
 40
0
 40
0
 40
1
 40
1
 40
1
 40
1
 10
365.180724
 20
202.710216
 30
0.0
 10
365.180724
 20
203.240649
 30
0.0
 10
364.970010
 20
203.749357
 30
0.0
 10
364.594937
 20
204.124430
 30
0.0
  0
SPLINE
  5
108
100
AcDbEntity
  8
VISIBLE
 62
7
100
AcDbSpline
 70
8
 71
3
 72
8
 73
4
 74
0
 40
0
 40
0
 40
0
 40
0
 40
1
 40
1
 40
1
 40
1
 10
364.594937
 20
204.124430
 30
0.0
 10
364.219865
 20
204.499503
 30
0.0
 10
363.711157
 20
204.710216
 30
0.0
 10
363.180724
 20
204.710216
 30
0.0
  0
SPLINE
  5
109
100
AcDbEntity
  8
VISIBLE
 62
7
100
AcDbSpline
 70
8
 71
3
 72
8
 73
4
 74
0
 40
0
 40
0
 40
0
 40
0
 40
1
 40
1
 40
1
 40
1
 10
363.180724
 20
110.510216
 30
0.0
 10
363.711157
 20
110.510216
 30
0.0
 10
364.219865
 20
110.720930
 30
0.0
 10
364.594937
 20
111.096003
 30
0.0
  0
SPLINE
  5
10a
100
AcDbEntity
  8
VISIBLE
 62
7
100
AcDbSpline
 70
8
 71
3
 72
8
 73
4
 74
0
 40
0
 40
0
 40
0
 40
0
 40
1
 40
1
 40
1
 40
1
 10
364.594937
 20
111.096003
 30
0.0
 10
364.970010
 20
111.471075
 30
0.0
 10
365.180724
 20
111.979783
 30
0.0
 10
365.180724
 20
112.510216
 30
0.0
  0
SPLINE
  5
10b
100
AcDbEntity
  8
VISIBLE
 62
7
100
AcDbSpline
 70
8
 71
3
 72
8
 73
4
 74
0
 40
0
 40
0
 40
0
 40
0
 40
1
 40
1
 40
1
 40
1
 10
349.502321
 20
111.302275
 30
0.0
 10
349.763377
 20
110.814624
 30
0.0
 10
350.271621
 20
110.510216
 30
0.0
 10
350.824751
 20
110.510216
 30
0.0
  0
SPLINE
  5
10c
100
AcDbEntity
  8
VISIBLE
 62
7
100
AcDbSpline
 70
8
 71
3
 72
8
 73
4
 74
0
 40
0
 40
0
 40
0
 40
0
 40
1
 40
1
 40
1
 40
1
 10
342.476697
 20
110.510216
 30
0.0
 10
343.029827
 20
110.510216
 30
0.0
 10
343.538070
 20
110.814624
 30
0.0
 10
343.799126
 20
111.302275
 30
0.0
  0
SPLINE
  5
10d
100
AcDbEntity
  8
VISIBLE
 62
7
100
AcDbSpline
 70
8
 71
3
 72
8
 73
4
 74
0
 40
0
 40
0
 40
0
 40
0
 40
1
 40
1
 40
1
 40
1
 10
252.722322
 20
111.302275
 30
0.0
 10
252.983377
 20
110.814624
 30
0.0
 10
253.491621
 20
110.510216
 30
0.0
 10
254.044751
 20
110.510216
 30
0.0
  0
SPLINE
  5
10e
100
AcDbEntity
  8
VISIBLE
 62
7
100
AcDbSpline
 70
8
 71
3
 72
8
 73
4
 74
0
 40
0
 40
0
 40
0
 40
0
 40
1
 40
1
 40
1
 40
1
 10
245.696697
 20
110.510216
 30
0.0
 10
246.249827
 20
110.510216
 30
0.0
 10
246.758070
 20
110.814624
 30
0.0
 10
247.019126
 20
111.302275
 30
0.0
  0
SPLINE
  5
10f
100
AcDbEntity
  8
VISIBLE
 62
7
100
AcDbSpline
 70
8
 71
3
 72
8
 73
4
 74
0
 40
0
 40
0
 40
0
 40
0
 40
1
 40
1
 40
1
 40
1
 10
136.722321
 20
111.302275
 30
0.0
 10
136.983377
 20
110.814624
 30
0.0
 10
137.491621
 20
110.510216
 30
0.0
 10
138.044751
 20
110.510216
 30
0.0
  0
SPLINE
  5
110
100
AcDbEntity
  8
VISIBLE
 62
7
100
AcDbSpline
 70
8
 71
3
 72
8
 73
4
 74
0
 40
0
 40
0
 40
0
 40
0
 40
1
 40
1
 40
1
 40
1
 10
129.696697
 20
110.510216
 30
0.0
 10
130.249827
 20
110.510216
 30
0.0
 10
130.758070
 20
110.814624
 30
0.0
 10
131.019126
 20
111.302275
 30
0.0
  0
SPLINE
  5
111
100
AcDbEntity
  8
VISIBLE
 62
7
100
AcDbSpline
 70
8
 71
3
 72
8
 73
4
 74
0
 40
0
 40
0
 40
0
 40
0
 40
1
 40
1
 40
1
 40
1
 10
82.812322
 20
111.302275
 30
0.0
 10
83.073378
 20
110.814624
 30
0.0
 10
83.581621
 20
110.510216
 30
0.0
 10
84.134751
 20
110.510216
 30
0.0
  0
SPLINE
  5
112
100
AcDbEntity
  8
VISIBLE
 62
7
100
AcDbSpline
 70
8
 71
3
 72
8
 73
4
 74
0
 40
0
 40
0
 40
0
 40
0
 40
1
 40
1
 40
1
 40
1
 10
75.786697
 20
110.510216
 30
0.0
 10
76.339827
 20
110.510216
 30
0.0
 10
76.848070
 20
110.814624
 30
0.0
 10
77.109126
 20
111.302275
 30
0.0
  0
SPLINE
  5
113
100
AcDbEntity
  8
VISIBLE
 62
7
100
AcDbSpline
 70
8
 71
3
 72
8
 73
4
 74
0
 40
0
 40
0
 40
0
 40
0
 40
1
 40
1
 40
1
 40
1
 10
61.430724
 20
112.510216
 30
0.0
 10
61.430724
 20
111.979783
 30
0.0
 10
61.641437
 20
111.471075
 30
0.0
 10
62.016510
 20
111.096003
 30
0.0
  0
SPLINE
  5
114
100
AcDbEntity
  8
VISIBLE
 62
7
100
AcDbSpline
 70
8
 71
3
 72
8
 73
4
 74
0
 40
0
 40
0
 40
0
 40
0
 40
1
 40
1
 40
1
 40
1
 10
62.016510
 20
111.096003
 30
0.0
 10
62.391583
 20
110.720930
 30
0.0
 10
62.900291
 20
110.510216
 30
0.0
 10
63.430724
 20
110.510216
 30
0.0
  0
SPLINE
  5
115
100
AcDbEntity
  8
VISIBLE
 62
7
100
AcDbSpline
 70
8
 71
3
 72
8
 73
4
 74
0
 40
0
 40
0
 40
0
 40
0
 40
1
 40
1
 40
1
 40
1
 10
63.430724
 20
204.710216
 30
0.0
 10
62.900291
 20
204.710216
 30
0.0
 10
62.391583
 20
204.499503
 30
0.0
 10
62.016510
 20
204.124430
 30
0.0
  0
SPLINE
  5
116
100
AcDbEntity
  8
VISIBLE
 62
7
100
AcDbSpline
 70
8
 71
3
 72
8
 73
4
 74
0
 40
0
 40
0
 40
0
 40
0
 40
1
 40
1
 40
1
 40
1
 10
62.016510
 20
204.124430
 30
0.0
 10
61.641437
 20
203.749357
 30
0.0
 10
61.430724
 20
203.240649
 30
0.0
 10
61.430724
 20
202.710216
 30
0.0
  0
SPLINE
  5
117
100
AcDbEntity
  8
VISIBLE
 62
7
100
AcDbSpline
 70
8
 71
3
 72
8
 73
4
 74
0
 40
0
 40
0
 40
0
 40
0
 40
1
 40
1
 40
1
 40
1
 10
77.109126
 20
203.918158
 30
0.0
 10
76.848070
 20
204.405808
 30
0.0
 10
76.339827
 20
204.710216
 30
0.0
 10
75.786697
 20
204.710216
 30
0.0
  0
SPLINE
  5
118
100
AcDbEntity
  8
VISIBLE
 62
7
100
AcDbSpline
 70
8
 71
3
 72
8
 73
4
 74
0
 40
0
 40
0
 40
0
 40
0
 40
1
 40
1
 40
1
 40
1
 10
173.259126
 20
203.918158
 30
0.0
 10
173.822049
 20
202.866622
 30
0.0
 10
174.917991
 20
202.210216
 30
0.0
 10
176.110724
 20
202.210216
 30
0.0
  0
SPLINE
  5
119
100
AcDbEntity
  8
VISIBLE
 62
7
100
AcDbSpline
 70
8
 71
3
 72
8
 73
4
 74
0
 40
0
 40
0
 40
0
 40
0
 40
1
 40
1
 40
1
 40
1
 10
176.110724
 20
202.210216
 30
0.0
 10
177.303456
 20
202.210216
 30
0.0
 10
178.399398
 20
202.866622
 30
0.0
 10
178.962321
 20
203.918158
 30
0.0
  0
LWPOLYLINE
  5
11a
100
AcDbEntity
  8
VISIBLE
 62
7
100
AcDbPolyline
 90
2
 70
0
 10
171.936697
 20
204.710216
 30
0.0
 10
84.134751
 20
204.710216
 30
0.0
  0
SPLINE
  5
11b
100
AcDbEntity
  8
VISIBLE
 62
7
100
AcDbSpline
 70
8
 71
3
 72
8
 73
4
 74
0
 40
0
 40
0
 40
0
 40
0
 40
1
 40
1
 40
1
 40
1
 10
267.609126
 20
203.918158
 30
0.0
 10
268.172050
 20
202.866622
 30
0.0
 10
269.267991
 20
202.210216
 30
0.0
 10
270.460724
 20
202.210216
 30
0.0
  0
SPLINE
  5
11c
100
AcDbEntity
  8
VISIBLE
 62
7
100
AcDbSpline
 70
8
 71
3
 72
8
 73
4
 74
0
 40
0
 40
0
 40
0
 40
0
 40
1
 40
1
 40
1
 40
1
 10
270.460724
 20
202.210216
 30
0.0
 10
271.653457
 20
202.210216
 30
0.0
 10
272.749398
 20
202.866622
 30
0.0
 10
273.312322
 20
203.918158
 30
0.0
  0
LWPOLYLINE
  5
11d
100
AcDbEntity
  8
VISIBLE
 62
7
100
AcDbPolyline
 90
2
 70
0
 10
266.286697
 20
204.710216
 30
0.0
 10
180.284751
 20
204.710216
 30
0.0
  0
SPLINE
  5
11e
100
AcDbEntity
  8
VISIBLE
 62
7
100
AcDbSpline
 70
8
 71
3
 72
8
 73
4
 74
0
 40
0
 40
0
 40
0
 40
0
 40
1
 40
1
 40
1
 40
1
 10
343.799126
 20
203.918158
 30
0.0
 10
344.362049
 20
202.866622
 30
0.0
 10
345.457991
 20
202.210216
 30
0.0
 10
346.650724
 20
202.210216
 30
0.0
  0
SPLINE
  5
11f
100
AcDbEntity
  8
VISIBLE
 62
7
100
AcDbSpline
 70
8
 71
3
 72
8
 73
4
 74
0
 40
0
 40
0
 40
0
 40
0
 40
1
 40
1
 40
1
 40
1
 10
346.650724
 20
202.210216
 30
0.0
 10
347.843456
 20
202.210216
 30
0.0
 10
348.939398
 20
202.866622
 30
0.0
 10
349.502321
 20
203.918158
 30
0.0
  0
LWPOLYLINE
  5
120
100
AcDbEntity
  8
VISIBLE
 62
7
100
AcDbPolyline
 90
2
 70
0
 10
342.476697
 20
204.710216
 30
0.0
 10
274.634750
 20
204.710216
 30
0.0
  0
LWPOLYLINE
  5
121
100
AcDbEntity
  8
VISIBLE
 62
7
100
AcDbPolyline
 90
2
 70
0
 10
363.180724
 20
204.710216
 30
0.0
 10
350.824751
 20
204.710216
 30
0.0
  0
LWPOLYLINE
  5
122
100
AcDbEntity
  8
VISIBLE
 62
7
100
AcDbPolyline
 90
2
 70
0
 10
365.180724
 20
112.510216
 30
0.0
 10
365.180724
 20
202.710216
 30
0.0
  0
SPLINE
  5
123
100
AcDbEntity
  8
VISIBLE
 62
7
100
AcDbSpline
 70
8
 71
3
 72
8
 73
4
 74
0
 40
0
 40
0
 40
0
 40
0
 40
1
 40
1
 40
1
 40
1
 10
349.502321
 20
111.302275
 30
0.0
 10
348.939398
 20
112.353811
 30
0.0
 10
347.843456
 20
113.010216
 30
0.0
 10
346.650724
 20
113.010216
 30
0.0
  0
SPLINE
  5
124
100
AcDbEntity
  8
VISIBLE
 62
7
100
AcDbSpline
 70
8
 71
3
 72
8
 73
4
 74
0
 40
0
 40
0
 40
0
 40
0
 40
1
 40
1
 40
1
 40
1
 10
346.650724
 20
113.010216
 30
0.0
 10
345.457991
 20
113.010216
 30
0.0
 10
344.362049
 20
112.353811
 30
0.0
 10
343.799126
 20
111.302275
 30
0.0
  0
LWPOLYLINE
  5
125
100
AcDbEntity
  8
VISIBLE
 62
7
100
AcDbPolyline
 90
2
 70
0
 10
363.180724
 20
110.510216
 30
0.0
 10
350.824751
 20
110.510216
 30
0.0
  0
SPLINE
  5
126
100
AcDbEntity
  8
VISIBLE
 62
7
100
AcDbSpline
 70
8
 71
3
 72
8
 73
4
 74
0
 40
0
 40
0
 40
0
 40
0
 40
1
 40
1
 40
1
 40
1
 10
252.722322
 20
111.302275
 30
0.0
 10
252.159398
 20
112.353811
 30
0.0
 10
251.063456
 20
113.010216
 30
0.0
 10
249.870724
 20
113.010216
 30
0.0
  0
SPLINE
  5
127
100
AcDbEntity
  8
VISIBLE
 62
7
100
AcDbSpline
 70
8
 71
3
 72
8
 73
4
 74
0
 40
0
 40
0
 40
0
 40
0
 40
1
 40
1
 40
1
 40
1
 10
249.870724
 20
113.010216
 30
0.0
 10
248.677991
 20
113.010216
 30
0.0
 10
247.582049
 20
112.353811
 30
0.0
 10
247.019126
 20
111.302275
 30
0.0
  0
LWPOLYLINE
  5
128
100
AcDbEntity
  8
VISIBLE
 62
7
100
AcDbPolyline
 90
2
 70
0
 10
342.476697
 20
110.510216
 30
0.0
 10
254.044751
 20
110.510216
 30
0.0
  0
SPLINE
  5
129
100
AcDbEntity
  8
VISIBLE
 62
7
100
AcDbSpline
 70
8
 71
3
 72
8
 73
4
 74
0
 40
0
 40
0
 40
0
 40
0
 40
1
 40
1
 40
1
 40
1
 10
136.722321
 20
111.302275
 30
0.0
 10
136.159398
 20
112.353811
 30
0.0
 10
135.063456
 20
113.010216
 30
0.0
 10
133.870724
 20
113.010216
 30
0.0
  0
SPLINE
  5
12a
100
AcDbEntity
  8
VISIBLE
 62
7
100
AcDbSpline
 70
8
 71
3
 72
8
 73
4
 74
0
 40
0
 40
0
 40
0
 40
0
 40
1
 40
1
 40
1
 40
1
 10
133.870724
 20
113.010216
 30
0.0
 10
132.677991
 20
113.010216
 30
0.0
 10
131.582049
 20
112.353811
 30
0.0
 10
131.019126
 20
111.302275
 30
0.0
  0
LWPOLYLINE
  5
12b
100
AcDbEntity
  8
VISIBLE
 62
7
100
AcDbPolyline
 90
2
 70
0
 10
245.696697
 20
110.510216
 30
0.0
 10
138.044751
 20
110.510216
 30
0.0
  0
SPLINE
  5
12c
100
AcDbEntity
  8
VISIBLE
 62
7
100
AcDbSpline
 70
8
 71
3
 72
8
 73
4
 74
0
 40
0
 40
0
 40
0
 40
0
 40
1
 40
1
 40
1
 40
1
 10
82.812322
 20
111.302275
 30
0.0
 10
82.249398
 20
112.353811
 30
0.0
 10
81.153457
 20
113.010216
 30
0.0
 10
79.960724
 20
113.010216
 30
0.0
  0
SPLINE
  5
12d
100
AcDbEntity
  8
VISIBLE
 62
7
100
AcDbSpline
 70
8
 71
3
 72
8
 73
4
 74
0
 40
0
 40
0
 40
0
 40
0
 40
1
 40
1
 40
1
 40
1
 10
79.960724
 20
113.010216
 30
0.0
 10
78.767991
 20
113.010216
 30
0.0
 10
77.672050
 20
112.353811
 30
0.0
 10
77.109126
 20
111.302275
 30
0.0
  0
LWPOLYLINE
  5
12e
100
AcDbEntity
  8
VISIBLE
 62
7
100
AcDbPolyline
 90
2
 70
0
 10
129.696697
 20
110.510216
 30
0.0
 10
84.134751
 20
110.510216
 30
0.0
  0
LWPOLYLINE
  5
12f
100
AcDbEntity
  8
VISIBLE
 62
7
100
AcDbPolyline
 90
2
 70
0
 10
75.786697
 20
110.510216
 30
0.0
 10
63.430724
 20
110.510216
 30
0.0
  0
LWPOLYLINE
  5
130
100
AcDbEntity
  8
VISIBLE
 62
7
100
AcDbPolyline
 90
2
 70
0
 10
61.430724
 20
112.510216
 30
0.0
 10
61.430724
 20
202.710216
 30
0.0
  0
SPLINE
  5
131
100
AcDbEntity
  8
VISIBLE
 62
7
100
AcDbSpline
 70
8
 71
3
 72
8
 73
4
 74
0
 40
0
 40
0
 40
0
 40
0
 40
1
 40
1
 40
1
 40
1
 10
77.109126
 20
203.918158
 30
0.0
 10
77.672050
 20
202.866622
 30
0.0
 10
78.767991
 20
202.210216
 30
0.0
 10
79.960724
 20
202.210216
 30
0.0
  0
SPLINE
  5
132
100
AcDbEntity
  8
VISIBLE
 62
7
100
AcDbSpline
 70
8
 71
3
 72
8
 73
4
 74
0
 40
0
 40
0
 40
0
 40
0
 40
1
 40
1
 40
1
 40
1
 10
79.960724
 20
202.210216
 30
0.0
 10
81.153457
 20
202.210216
 30
0.0
 10
82.249398
 20
202.866622
 30
0.0
 10
82.812322
 20
203.918158
 30
0.0
  0
LWPOLYLINE
  5
133
100
AcDbEntity
  8
VISIBLE
 62
7
100
AcDbPolyline
 90
2
 70
0
 10
75.786697
 20
204.710216
 30
0.0
 10
63.430724
 20
204.710216
 30
0.0
  0
ENDSEC
  0
SECTION
  2
OBJECTS
  0
DICTIONARY
  5
C
330
0
100
AcDbDictionary
  3
ACAD_GROUP
350
D
  3
ACAD_MLINESTYLE
350
17
  0
DICTIONARY
  5
D
330
C
100
AcDbDictionary
  0
DICTIONARY
  5
1A
330
C
100
AcDbDictionary
  0
DICTIONARY
  5
17
330
C
100
AcDbDictionary
  3
STANDARD
350
18
  0
DICTIONARY
  5
19
330
C
100
AcDbDictionary
  0
ENDSEC
  0
EOF
